<svg xmlns="http://www.w3.org/2000/svg" width="850.2173767089844" height="908.5312194824219" style="background: rgb(255, 255, 255);"><rect width="100%" height="100%" fill="#ffffff"/><g transform="translate(425.10870361328125,454.265625) scale(1) translate(206.43492126464844,-121.75303649902344)"><polyline points="-139.31015731215862,183.18729854711827 -285.5905394595537,188.2842524776535" stroke="#818790" stroke-width="1" fill="none"/><polygon points="-292.0865972711889,188.51059935281162 -282.9701765992243,191.69507327039625 -283.21393477247153,184.69931870401993" fill="#818790"/><text x="-212.45034838585616" y="182.73577551238589" text-anchor="middle" dominant-baseline="alphabetic" font-size="6" font-family="&quot;Open Sans&quot;, sans-serif" fill="#818790" transform="rotate(-1.9955912447343327,-212.45034838585616,185.73577551238589)"><tspan>ACTED_IN</tspan></text><polyline points="-135.90477471403196,76.50146762833172 -291.52292825283956,165.7189048050973" stroke="#818790" stroke-width="1" fill="none"/><polygon points="-297.1619329137449,168.95180233429429 -287.61328932907765,167.51186980358594 -291.09487128359746,161.4390955533802" fill="#818790"/><text x="-213.71385148343575" y="118.11018621671451" text-anchor="middle" dominant-baseline="alphabetic" font-size="6" font-family="&quot;Open Sans&quot;, sans-serif" fill="#818790" transform="rotate(-29.826076698794353,-213.71385148343575,121.11018621671451)"><tspan>ACTED_IN</tspan></text><polyline points="-253.06846328169,104.5218278138912 -300.0909302904362,154.37738483453836" stroke="#818790" stroke-width="1" fill="none"/><polygon points="-304.55080713994835,159.10596797192588 -295.82943288972285,154.96017116220358 -300.9217531915248,150.15722686272895" fill="#818790"/><text x="-276.5796967860631" y="126.44960632421478" text-anchor="middle" dominant-baseline="alphabetic" font-size="6" font-family="&quot;Open Sans&quot;, sans-serif" fill="#818790" transform="rotate(-46.67507391444278,-276.5796967860631,129.44960632421478)"><tspan>ACTED_IN</tspan></text><polyline points="-418.32847435250574,6.94162830349558 -353.77740884610284,144.63539598156117" stroke="#818790" stroke-width="1" fill="none"/><polygon points="-351.0183394331192,150.5207622381622 -351.66954602061907,140.8861408143388 -358.0076327584971,143.8574463360135" fill="#818790"/><text x="-386.0529415993043" y="72.78851214252838" text-anchor="middle" dominant-baseline="alphabetic" font-size="6" font-family="&quot;Open Sans&quot;, sans-serif" fill="#818790" transform="rotate(64.88273893209113,-386.0529415993043,75.78851214252838)"><tspan>ACTED_IN</tspan></text><polyline points="-151.11626149607457,-28.808608581965892 -302.2597317781225,152.37176882422128" stroke="#818790" stroke-width="1" fill="none"/><polygon points="-306.42352823963506,157.36304110963067 -297.97066344693576,152.69409296295518 -303.34587975429974,148.2100044659417" fill="#818790"/><text x="-226.68799663709854" y="58.78158012112769" text-anchor="middle" dominant-baseline="alphabetic" font-size="6" font-family="&quot;Open Sans&quot;, sans-serif" fill="#818790" transform="rotate(-50.16461399813066,-226.68799663709854,61.78158012112769)"><tspan>DIRECTED</tspan></text><polyline points="-245.39240605911684,14.519321207490188 -311.44139031949715,146.07828834409014" stroke="#818790" stroke-width="1" fill="none"/><polygon points="-314.3577946729509,151.8872973514128 -307.1917684103796,145.41442568544113 -313.44762426441946,142.27368253556784" fill="#818790"/><text x="-278.416898189307" y="77.29880477579016" text-anchor="middle" dominant-baseline="alphabetic" font-size="6" font-family="&quot;Open Sans&quot;, sans-serif" fill="#818790" transform="rotate(-63.34112871183715,-278.416898189307,80.29880477579016)"><tspan>DIRECTED</tspan></text><polyline points="-254.48650151835156,354.87517739457604 -313.7753607256072,233.02286114695423" stroke="#818790" stroke-width="1" fill="none"/><polygon points="-316.6192507064667,227.17800958538595 -315.8287846507365,236.8022063526356 -309.5343291228938,233.7395556040177" fill="#818790"/><text x="-284.13093112197936" y="290.9490192707651" text-anchor="middle" dominant-baseline="alphabetic" font-size="6" font-family="&quot;Open Sans&quot;, sans-serif" fill="#818790" transform="rotate(64.05414803440208,-284.13093112197936,293.9490192707651)"><tspan>PRODUCED</tspan></text><polyline points="-120.23084846086,150.4094208273461 -229.5193006353456,-92.43413653521304" stroke="#818790" stroke-width="1" fill="none"/><polygon points="-232.1868507016778,-98.36154546691424 -231.68500157305692,-88.71799075653371 -225.30163810814793,-91.59073698181456" fill="#818790"/><text x="-174.8750745481028" y="25.987642146066534" text-anchor="middle" dominant-baseline="alphabetic" font-size="6" font-family="&quot;Open Sans&quot;, sans-serif" fill="#818790" transform="rotate(65.770518020822,-174.8750745481028,28.987642146066534)"><tspan>ACTED_IN</tspan></text><polyline points="-128.6617756340095,38.00238976124038 -222.3820719091908,-96.2699256009177" stroke="#818790" stroke-width="1" fill="none"/><polygon points="-226.1023718994069,-101.59996950156224 -223.8212109363778,-92.21667025978421 -218.08116365876063,-96.22314717232463" fill="#818790"/><text x="-175.52192377160014" y="-32.13376791983866" text-anchor="middle" dominant-baseline="alphabetic" font-size="6" font-family="&quot;Open Sans&quot;, sans-serif" fill="#818790" transform="rotate(55.08546985405167,-175.52192377160014,-29.13376791983866)"><tspan>ACTED_IN</tspan></text><polyline points="-236.58580566217273,53.84644980991168 -244.9235410913624,-89.02819718479579" stroke="#818790" stroke-width="1" fill="none"/><polygon points="-245.3022173253106,-95.51715737190149 -248.27195187136235,-86.32854067916765 -241.28384090063312,-86.73634585418878" fill="#818790"/><text x="-240.75467337676758" y="-20.590873687442052" text-anchor="middle" dominant-baseline="alphabetic" font-size="6" font-family="&quot;Open Sans&quot;, sans-serif" fill="#818790" transform="rotate(86.66017819457424,-240.75467337676758,-17.590873687442052)"><tspan>ACTED_IN</tspan></text><polyline points="-407.3521918305603,-34.915897369919264 -284.05451362764916,-110.60682634670401" stroke="#818790" stroke-width="1" fill="none"/><polygon points="-278.51503664665614,-114.00744316973012 -288.01618306350673,-112.28169209684408 -284.3539803310171,-106.31610150192849" fill="#818790"/><text x="-345.7033527291047" y="-75.76136185831163" text-anchor="middle" dominant-baseline="alphabetic" font-size="6" font-family="&quot;Open Sans&quot;, sans-serif" fill="#818790" transform="rotate(-31.545252343976166,-345.7033527291047,-72.76136185831163)"><tspan>ACTED_IN</tspan></text><polyline points="-156.13825815395438,-61.72540634353514 -212.59902419692173,-105.18637585814186" stroke="#818790" stroke-width="1" fill="none"/><polygon points="-217.7497743727827,-109.15119270458865 -212.7528678158312,-100.88796543789104 -208.48306505811925,-106.4349271657413" fill="#818790"/><text x="-184.36864117543806" y="-86.4558911008385" text-anchor="middle" dominant-baseline="alphabetic" font-size="6" font-family="&quot;Open Sans&quot;, sans-serif" fill="#818790" transform="rotate(37.58746557828868,-184.36864117543806,-83.4558911008385)"><tspan>DIRECTED</tspan></text><polyline points="-238.60459187802573,-31.19967473332395 -243.66652483993553,-89.09080994624208" stroke="#818790" stroke-width="1" fill="none"/><polygon points="-244.23271691285984,-95.5661034945345 -246.9354551840452,-86.2954397730165 -239.96206213203797,-86.90518508231959" fill="#818790"/><text x="-241.13555835898063" y="-63.14524233978301" text-anchor="middle" dominant-baseline="alphabetic" font-size="6" font-family="&quot;Open Sans&quot;, sans-serif" fill="#818790" transform="rotate(85.00283373961625,-241.13555835898063,-60.14524233978301)"><tspan>DIRECTED</tspan></text><polyline points="-85.7657868460992,153.20380544839824 -8.22600376989475,49.81598490120438" stroke="#818790" stroke-width="1" fill="none"/><polygon points="-4.326038609930244,44.61595877136013 -12.526004439797235,49.7160137111636 -6.92597629996496,53.91597619112537" fill="#818790"/><text x="-46.995895307996975" y="98.50989517480131" text-anchor="middle" dominant-baseline="alphabetic" font-size="6" font-family="&quot;Open Sans&quot;, sans-serif" fill="#818790" transform="rotate(-53.130486235305305,-46.995895307996975,101.50989517480131)"><tspan>ACTED_IN</tspan></text><polyline points="-84.21087633915916,50.663343200684444 -22.703051028535977,29.077191019810424" stroke="#818790" stroke-width="1" fill="none"/><polygon points="-16.569790068962405,26.924724991792644 -26.221017720381543,26.602537436969953 -23.902977382516237,33.20758770112611" fill="#818790"/><text x="-53.45696368384757" y="36.87026711024743" text-anchor="middle" dominant-baseline="alphabetic" font-size="6" font-family="&quot;Open Sans&quot;, sans-serif" fill="#818790" transform="rotate(-19.338506857549547,-53.45696368384757,39.87026711024743)"><tspan>ACTED_IN</tspan></text><polyline points="-206.12772953858013,74.32403027742991 -23.623784976852725,25.822032631928415" stroke="#818790" stroke-width="1" fill="none"/><polygon points="-17.341839980090302,24.152551557566824 -26.93886901564836,23.081554969964646 -25.140966320182034,29.846726504939564" fill="#818790"/><text x="-114.87575725771643" y="47.07303145467917" text-anchor="middle" dominant-baseline="alphabetic" font-size="6" font-family="&quot;Open Sans&quot;, sans-serif" fill="#818790" transform="rotate(-14.882833405692653,-114.87575725771643,50.07303145467917)"><tspan>ACTED_IN</tspan></text><polyline points="-113.9188220631327,-39.71561879410887 -21.207933475892197,-1.7824699544272926" stroke="#818790" stroke-width="1" fill="none"/><polygon points="-15.192013961810494,0.6789752308431345 -22.19635511231647,-5.968520917882989 -24.847142234915392,0.5101616357434602" fill="#818790"/><text x="-67.56337776951244" y="-23.74904437426808" text-anchor="middle" dominant-baseline="alphabetic" font-size="6" font-family="&quot;Open Sans&quot;, sans-serif" fill="#818790" transform="rotate(22.25218262786033,-67.56337776951244,-20.74904437426808)"><tspan>DIRECTED</tspan></text><polyline points="-211.52534129909094,-6.211761109092218 -24.559252144993707,10.700924425462569" stroke="#818790" stroke-width="1" fill="none"/><polygon points="-18.085683989570832,11.286514159914024 -26.733768501605564,6.989930136215079 -27.36440360024559,13.961465072824325" fill="#818790"/><text x="-118.04229672204232" y="-0.7554183418148246" text-anchor="middle" dominant-baseline="alphabetic" font-size="6" font-family="&quot;Open Sans&quot;, sans-serif" fill="#818790" transform="rotate(5.168826647529073,-118.04229672204232,2.2445816581851754)"><tspan>DIRECTED</tspan></text><g class="node" data-id="keanu"><circle cx="-105.3656005859375" cy="181.00393676757812" r="30" fill="#4C8BF5"/><text x="-105.3656005859375" y="181.00393676757812" text-anchor="middle" dominant-baseline="auto" font-size="7.792207792207791" font-family="&quot;Open Sans&quot;, sans-serif" fill="#1a1b1d"><tspan>Keanu</tspan></text><text x="-105.3656005859375" y="188.79614455978592" text-anchor="middle" dominant-baseline="auto" font-size="7.792207792207791" font-family="&quot;Open Sans&quot;, sans-serif" fill="#1a1b1d"><tspan>Reeves</tspan></text></g><g class="node" data-id="carrie"><circle cx="-111.2435073852539" cy="61.21023178100586" r="25" fill="#4C8BF5"/><text x="-111.2435073852539" y="61.21023178100586" text-anchor="middle" dominant-baseline="auto" font-size="6.4935064935064934" font-family="&quot;Open Sans&quot;, sans-serif" fill="#1a1b1d"><tspan>Carrie-An</tspan></text><text x="-111.2435073852539" y="67.70373827451235" text-anchor="middle" dominant-baseline="auto" font-size="6.4935064935064934" font-family="&quot;Open Sans&quot;, sans-serif" fill="#1a1b1d"><tspan>ne</tspan></text></g><g class="node" data-id="laurence"><circle cx="-233.8980255126953" cy="82.73893737792969" r="25" fill="#4C8BF5"/><text x="-233.8980255126953" y="82.73893737792969" text-anchor="middle" dominant-baseline="auto" font-size="6.4935064935064934" font-family="&quot;Open Sans&quot;, sans-serif" fill="#1a1b1d"><tspan>Laurence</tspan></text><text x="-233.8980255126953" y="89.23244387143617" text-anchor="middle" dominant-baseline="auto" font-size="6.4935064935064934" font-family="&quot;Open Sans&quot;, sans-serif" fill="#1a1b1d"><tspan>Fishburne</tspan></text></g><g class="node" data-id="hugo"><circle cx="-431.5436096191406" cy="-18.891687393188477" r="25" fill="#4C8BF5"/><text x="-431.5436096191406" y="-18.891687393188477" text-anchor="middle" dominant-baseline="auto" font-size="6.4935064935064934" font-family="&quot;Open Sans&quot;, sans-serif" fill="#1a1b1d"><tspan>Hugo</tspan></text><text x="-431.5436096191406" y="-12.398180899681982" text-anchor="middle" dominant-baseline="auto" font-size="6.4935064935064934" font-family="&quot;Open Sans&quot;, sans-serif" fill="#1a1b1d"><tspan>Weaving</tspan></text></g><g class="node" data-id="lilly"><circle cx="-136.5101318359375" cy="-47.87850570678711" r="20" fill="#34A853"/><text x="-136.5101318359375" y="-47.87850570678711" text-anchor="middle" dominant-baseline="auto" font-size="5.194805194805195" font-family="&quot;Open Sans&quot;, sans-serif" fill="#1a1b1d"><tspan>Lilly</tspan></text><text x="-136.5101318359375" y="-42.68370051198191" text-anchor="middle" dominant-baseline="auto" font-size="5.194805194805195" font-family="&quot;Open Sans&quot;, sans-serif" fill="#1a1b1d"><tspan>Wachows</tspan></text></g><g class="node" data-id="lana"><circle cx="-235.51783752441406" cy="-7.378005027770996" r="20" fill="#34A853"/><text x="-235.51783752441406" y="-7.378005027770996" text-anchor="middle" dominant-baseline="auto" font-size="5.194805194805195" font-family="&quot;Open Sans&quot;, sans-serif" fill="#1a1b1d"><tspan>Lana</tspan></text><text x="-235.51783752441406" y="-2.1831998329658013" text-anchor="middle" dominant-baseline="auto" font-size="5.194805194805195" font-family="&quot;Open Sans&quot;, sans-serif" fill="#1a1b1d"><tspan>Wachows</tspan></text></g><g class="node" data-id="joel"><circle cx="-243.08677673339844" cy="376.0186462402344" r="20" fill="#FBBC05"/><text x="-243.08677673339844" y="378.616048837637" text-anchor="middle" dominant-baseline="auto" font-size="5.194805194805195" font-family="&quot;Open Sans&quot;, sans-serif" fill="#1a1b1d"><tspan>Joel Silver</tspan></text></g><g class="node" data-id="matrix"><circle cx="-334.095947265625" cy="188.9737548828125" r="40" fill="#EA4335"/><text x="-334.095947265625" y="188.9737548828125" text-anchor="middle" dominant-baseline="auto" font-size="10.38961038961039" font-family="&quot;Open Sans&quot;, sans-serif" fill="#1a1b1d"><tspan>The</tspan></text><text x="-334.095947265625" y="199.3633652724229" text-anchor="middle" dominant-baseline="auto" font-size="10.38961038961039" font-family="&quot;Open Sans&quot;, sans-serif" fill="#1a1b1d"><tspan>Matrix</tspan></text></g><g class="node" data-id="matrix2"><circle cx="-246.45945739746094" cy="-132.5125732421875" r="35" fill="#EA4335"/><text x="-246.45945739746094" y="-132.5125732421875" text-anchor="middle" dominant-baseline="auto" font-size="9.09090909090909" font-family="&quot;Open Sans&quot;, sans-serif" fill="#1a1b1d"><tspan>The Matri</tspan></text><text x="-246.45945739746094" y="-123.4216641512784" text-anchor="middle" dominant-baseline="auto" font-size="9.09090909090909" font-family="&quot;Open Sans&quot;, sans-serif" fill="#1a1b1d"><tspan>x Reloade</tspan></text></g><g class="node" data-id="matrix3"><circle cx="18.67376708984375" cy="15.615804672241211" r="35" fill="#EA4335"/><text x="18.67376708984375" y="15.615804672241211" text-anchor="middle" dominant-baseline="auto" font-size="9.09090909090909" font-family="&quot;Open Sans&quot;, sans-serif" fill="#1a1b1d"><tspan>The Matri</tspan></text><text x="18.67376708984375" y="24.7067137631503" text-anchor="middle" dominant-baseline="auto" font-size="9.09090909090909" font-family="&quot;Open Sans&quot;, sans-serif" fill="#1a1b1d"><tspan>x Revoluti</tspan></text></g></g></svg>